<svg xmlns="http://www.w3.org/2000/svg" viewBox="0 0 529 88.01"><defs><style>.cls-1{fill:#fff;}.cls-2{fill:#636569;}.cls-3{fill:#6aaae4;}.cls-4{fill:#76bc21;}.cls-5{fill:#ee7623;}.cls-6{fill:#896b25;}.cls-7{fill:#eba900;}.cls-8{fill:#76871e;}.cls-9{fill:#8a803c;}</style></defs><g id="Layer_2" data-name="Layer 2"><g id="Layer_1-2" data-name="Layer 1"><rect class="cls-1" x="58.62" y="15.06" width="51.46" height="5.02"/><rect class="cls-1" x="58.62" y="7.53" width="51.46" height="5.03"/><rect class="cls-1" x="58.62" width="51.46" height="5.02"/><polygon class="cls-1" points="110.08 30.13 92.5 30.13 67.41 30.13 58.62 30.13 36.4 30.13 36.4 35.14 58.62 35.14 67.41 35.14 92.5 35.14 110.08 35.14 162.8 35.14 162.8 30.13 110.08 30.13"/><polygon class="cls-1" points="92.5 45.19 67.41 45.19 58.62 45.19 45.19 45.19 36.4 45.19 0 45.19 0 50.2 36.4 50.2 45.19 50.2 58.62 50.2 67.41 50.2 92.5 50.2 110.08 50.2 162.8 50.2 162.8 45.19 110.08 45.19 92.5 45.19"/><polygon class="cls-1" points="92.5 37.66 67.41 37.66 58.62 37.66 36.4 37.66 36.4 42.68 58.62 42.68 67.41 42.68 92.5 42.68 110.08 42.68 162.8 42.68 162.8 37.66 110.08 37.66 92.5 37.66"/><polygon class="cls-1" points="92.5 60.26 67.41 60.26 58.62 60.26 45.19 60.26 36.4 60.26 0 60.26 0 65.27 36.4 65.27 45.19 65.27 58.62 65.27 67.41 65.27 92.5 65.27 110.08 65.27 162.8 65.27 162.8 60.26 110.08 60.26 92.5 60.26"/><polygon class="cls-1" points="92.5 52.72 67.41 52.72 58.62 52.72 45.19 52.72 36.4 52.72 0 52.72 0 57.74 36.4 57.74 45.19 57.74 58.62 57.74 67.41 57.74 92.5 57.74 110.08 57.74 162.8 57.74 162.8 52.72 110.08 52.72 92.5 52.72"/><polygon class="cls-1" points="92.5 67.78 67.41 67.78 58.62 67.78 45.19 67.78 36.4 67.78 0 67.78 0 72.8 36.4 72.8 45.19 72.8 58.62 72.8 67.41 72.8 92.5 72.8 110.08 72.8 162.8 72.8 162.8 67.78 110.08 67.78 92.5 67.78"/><polygon class="cls-1" points="67.41 27.61 110.08 27.61 110.08 22.59 67.41 22.59 58.61 22.59 36.4 22.59 36.4 27.61 58.61 27.61 67.41 27.61"/><polygon class="cls-1" points="58.62 75.31 36.4 75.31 36.4 80.33 58.62 80.33 67.41 80.33 110.08 80.33 110.08 75.31 67.41 75.31 58.62 75.31"/><rect class="cls-1" x="36.4" y="82.84" width="31.01" height="5.02"/><path class="cls-2" d="M200.06,42.33h4.29a22.55,22.55,0,0,0,5.22-.35,3.14,3.14,0,0,0,1.63-1.22,3.75,3.75,0,0,0,.59-2.15,3.45,3.45,0,0,0-.78-2.35,3.62,3.62,0,0,0-2.19-1.13c-.47-.06-1.88-.1-4.23-.1h-4.53Zm-5.81,16.59V30.17h12.22a20.8,20.8,0,0,1,6.7.78,6.54,6.54,0,0,1,3.34,2.75,8.26,8.26,0,0,1,1.26,4.53,7.68,7.68,0,0,1-1.9,5.35,9.15,9.15,0,0,1-5.69,2.65,14.13,14.13,0,0,1,3.11,2.41,34.09,34.09,0,0,1,3.3,4.68l3.51,5.6h-6.94L209,52.67a39.85,39.85,0,0,0-3.06-4.23,4.51,4.51,0,0,0-1.75-1.2,9.71,9.71,0,0,0-2.92-.32h-1.17v12Z"/><path class="cls-2" d="M241.83,44.53q0,4.88,2.25,7.4a7.34,7.34,0,0,0,5.73,2.52A7.26,7.26,0,0,0,255.5,52c1.49-1.66,2.23-4.17,2.23-7.5s-.72-5.75-2.17-7.37a7.29,7.29,0,0,0-5.75-2.44A7.41,7.41,0,0,0,244,37.1c-1.46,1.65-2.19,4.12-2.19,7.43m-6,.2a18.25,18.25,0,0,1,1.32-7.38,13.32,13.32,0,0,1,2.67-3.94,11.14,11.14,0,0,1,3.72-2.59,15.76,15.76,0,0,1,6.2-1.14,13.5,13.5,0,0,1,10.17,4q3.81,3.93,3.81,11T260,55.48a13.38,13.38,0,0,1-10.12,3.93c-4.27,0-7.68-1.3-10.2-3.91s-3.79-6.2-3.79-10.77"/><path class="cls-2" d="M280.57,49.57l5.65-.55a7,7,0,0,0,2.06,4.18,6.32,6.32,0,0,0,4.21,1.33,6.49,6.49,0,0,0,4.23-1.19,3.51,3.51,0,0,0,1.42-2.77,2.63,2.63,0,0,0-.6-1.74,4.79,4.79,0,0,0-2.09-1.24c-.68-.24-2.23-.65-4.64-1.26-3.11-.77-5.3-1.72-6.55-2.84a7.56,7.56,0,0,1-1.41-9.9,7.91,7.91,0,0,1,3.59-2.91,14.36,14.36,0,0,1,5.66-1q5.41,0,8.15,2.37a8.41,8.41,0,0,1,2.87,6.34l-5.8.25a4.91,4.91,0,0,0-1.6-3.18,5.86,5.86,0,0,0-3.68-1,6.58,6.58,0,0,0-4,1.05,2.08,2.08,0,0,0-.92,1.78,2.21,2.21,0,0,0,.86,1.75q1.1.91,5.33,1.92a27.81,27.81,0,0,1,6.27,2.07A8,8,0,0,1,302.8,46a9.05,9.05,0,0,1-.22,9.21,8.28,8.28,0,0,1-3.89,3.21,16.28,16.28,0,0,1-6.26,1c-3.64,0-6.42-.84-8.37-2.52a10.91,10.91,0,0,1-3.49-7.34"/><polygon class="cls-2" points="322.61 58.92 322.61 30.17 343.93 30.17 343.93 35.03 328.41 35.03 328.41 41.41 342.85 41.41 342.85 46.26 328.41 46.26 328.41 54.08 344.48 54.08 344.48 58.92 322.61 58.92"/><polygon class="cls-2" points="367.26 58.92 360.39 30.17 366.33 30.17 370.67 49.92 375.93 30.17 382.83 30.17 387.87 50.26 392.29 30.17 398.13 30.17 391.15 58.92 384.99 58.92 379.26 37.43 373.56 58.92 367.26 58.92"/><path class="cls-2" d="M419.68,44.53q0,4.88,2.25,7.4a7.76,7.76,0,0,0,11.43,0c1.48-1.66,2.22-4.17,2.22-7.5s-.72-5.75-2.17-7.37a7.28,7.28,0,0,0-5.75-2.44,7.44,7.44,0,0,0-5.79,2.46c-1.46,1.65-2.19,4.12-2.19,7.43m-6,.2A18.26,18.26,0,0,1,415,37.35a13.36,13.36,0,0,1,2.68-3.94,11,11,0,0,1,3.71-2.59,15.76,15.76,0,0,1,6.2-1.14,13.5,13.5,0,0,1,10.17,4q3.81,3.93,3.81,11T437.8,55.48c-2.52,2.63-5.9,3.93-10.12,3.93s-7.68-1.3-10.2-3.91-3.78-6.2-3.78-10.77"/><path class="cls-2" d="M464.7,44.53q0,4.88,2.26,7.4a7.75,7.75,0,0,0,11.42,0c1.48-1.66,2.22-4.17,2.22-7.5s-.72-5.75-2.16-7.37a8,8,0,0,0-11.54,0c-1.47,1.65-2.2,4.12-2.2,7.43m-6,.2A18.25,18.25,0,0,1,460,37.35a13.32,13.32,0,0,1,2.67-3.94,11.14,11.14,0,0,1,3.72-2.59,15.8,15.8,0,0,1,6.2-1.14,13.49,13.49,0,0,1,10.17,4q3.81,3.93,3.82,11t-3.79,10.89c-2.52,2.63-5.89,3.93-10.12,3.93s-7.67-1.3-10.2-3.91-3.79-6.2-3.79-10.77"/><path class="cls-2" d="M510.7,35v19H515a15.33,15.33,0,0,0,3.51-.28,5.31,5.31,0,0,0,2.34-1.19,6.07,6.07,0,0,0,1.52-2.78,18.39,18.39,0,0,0,.59-5.26,16.94,16.94,0,0,0-.59-5.12,6.56,6.56,0,0,0-1.65-2.79,5.58,5.58,0,0,0-2.69-1.35,26.34,26.34,0,0,0-4.76-.28Zm-5.8-4.86h10.6a20.6,20.6,0,0,1,5.48.55,9.58,9.58,0,0,1,4.33,2.65A12.51,12.51,0,0,1,528.06,38a21.1,21.1,0,0,1,.94,6.79,18.84,18.84,0,0,1-.88,6.12A12.71,12.71,0,0,1,525,56a10.2,10.2,0,0,1-4.08,2.3,17.76,17.76,0,0,1-5.14.6H504.9Z"/><path class="cls-2" d="M196.88,77v3.7h1.44a6.66,6.66,0,0,0,2.08-.21,1.73,1.73,0,0,0,.82-.63,1.75,1.75,0,0,0,.3-1,1.68,1.68,0,0,0-.42-1.17,1.76,1.76,0,0,0-1.06-.57,12,12,0,0,0-1.89-.1Zm-2.63,10.83v-13h4.22a15.27,15.27,0,0,1,3.13.2,3.44,3.44,0,0,1,1.87,1.27,4.1,4.1,0,0,1,.76,2.54,4.21,4.21,0,0,1-.44,2,3.61,3.61,0,0,1-1.11,1.29,4,4,0,0,1-1.36.62,15.6,15.6,0,0,1-2.73.18h-1.71v4.92Z"/><path class="cls-2" d="M218.48,80.27h2a9.14,9.14,0,0,0,2.36-.17,1.4,1.4,0,0,0,.74-.54,1.76,1.76,0,0,0,.26-1,1.53,1.53,0,0,0-.35-1.06,1.61,1.61,0,0,0-1-.51c-.21,0-.85-.05-1.91-.05h-2.06Zm-2.63,7.52v-13h5.53a9.64,9.64,0,0,1,3,.35,3.13,3.13,0,0,1,1.52,1.25,3.83,3.83,0,0,1,.56,2.06,3.47,3.47,0,0,1-.86,2.41A4.15,4.15,0,0,1,223.06,82a6.26,6.26,0,0,1,1.42,1.09A15.65,15.65,0,0,1,226,85.24l1.59,2.55h-3.15L222.51,85A18.9,18.9,0,0,0,221.13,83a1.93,1.93,0,0,0-.79-.54,4.24,4.24,0,0,0-1.32-.15h-.54v5.44Z"/><path class="cls-2" d="M240.61,81.26a4.84,4.84,0,0,0,1,3.36,3.51,3.51,0,0,0,5.17,0,5,5,0,0,0,1-3.4,4.92,4.92,0,0,0-1-3.34,3.29,3.29,0,0,0-2.61-1.1,3.35,3.35,0,0,0-2.62,1.11,5,5,0,0,0-1,3.36m-2.7.09A8.25,8.25,0,0,1,238.5,78a6.3,6.3,0,0,1,1.21-1.78,5.24,5.24,0,0,1,1.69-1.18,7.17,7.17,0,0,1,2.8-.51,6.09,6.09,0,0,1,4.61,1.79,8,8,0,0,1,0,9.89A6.05,6.05,0,0,1,244.24,88a6.13,6.13,0,0,1-4.62-1.77,6.76,6.76,0,0,1-1.71-4.89"/><path class="cls-2" d="M264.68,77v3.7h1.44a6.71,6.71,0,0,0,2.08-.21,1.71,1.71,0,0,0,.81-.63,1.75,1.75,0,0,0,.3-1,1.67,1.67,0,0,0-.41-1.17,1.76,1.76,0,0,0-1.06-.57A12,12,0,0,0,266,77Zm-2.63,10.83v-13h4.21a15.2,15.2,0,0,1,3.13.2,3.39,3.39,0,0,1,1.88,1.27,4.73,4.73,0,0,1,.31,4.55,3.58,3.58,0,0,1-1.1,1.29,4,4,0,0,1-1.36.62,15.6,15.6,0,0,1-2.73.18h-1.71v4.92Z"/><polygon class="cls-2" points="283.64 87.79 283.64 74.76 293.29 74.76 293.29 76.96 286.27 76.96 286.27 79.85 292.8 79.85 292.8 82.05 286.27 82.05 286.27 85.59 293.54 85.59 293.54 87.79 283.64 87.79"/><path class="cls-2" d="M307.87,80.27h1.94a9.09,9.09,0,0,0,2.36-.17,1.36,1.36,0,0,0,.74-.54,1.69,1.69,0,0,0,.27-1,1.57,1.57,0,0,0-.35-1.06,1.61,1.61,0,0,0-1-.51c-.22,0-.85-.05-1.92-.05h-2.05Zm-2.63,7.52v-13h5.54a9.5,9.5,0,0,1,3,.35,3.09,3.09,0,0,1,1.52,1.25,3.75,3.75,0,0,1,.57,2.06,3.47,3.47,0,0,1-.86,2.41A4.15,4.15,0,0,1,312.45,82a6,6,0,0,1,1.41,1.09,14.65,14.65,0,0,1,1.5,2.11l1.58,2.55H313.8L311.9,85A17,17,0,0,0,310.51,83a1.87,1.87,0,0,0-.79-.54,4.15,4.15,0,0,0-1.32-.15h-.53v5.44Z"/><polygon class="cls-2" points="330.75 87.79 330.75 76.96 326.89 76.96 326.89 74.76 337.24 74.76 337.24 76.96 333.38 76.96 333.38 87.79 330.75 87.79"/><polygon class="cls-2" points="351.81 87.79 351.81 82.31 347.05 74.76 350.13 74.76 353.19 79.91 356.19 74.76 359.22 74.76 354.44 82.32 354.44 87.79 351.81 87.79"/><path class="cls-2" d="M388.5,83l2.55.81A5.69,5.69,0,0,1,389.1,87a6.12,6.12,0,0,1-7.72-.73,6.82,6.82,0,0,1-1.67-4.85,7.11,7.11,0,0,1,1.68-5,5.75,5.75,0,0,1,4.41-1.8A5.44,5.44,0,0,1,389.69,76a5.22,5.22,0,0,1,1.33,2.4l-2.6.62a2.69,2.69,0,0,0-2.75-2.18,3,3,0,0,0-2.35,1,5.13,5.13,0,0,0-.9,3.37,5.55,5.55,0,0,0,.88,3.52,2.91,2.91,0,0,0,2.32,1.05,2.61,2.61,0,0,0,1.8-.67A3.87,3.87,0,0,0,388.5,83"/><path class="cls-2" d="M404.94,81.26a4.89,4.89,0,0,0,1,3.36,3.35,3.35,0,0,0,2.6,1.14,3.31,3.31,0,0,0,2.58-1.13,5,5,0,0,0,1-3.4,4.86,4.86,0,0,0-1-3.34,3.29,3.29,0,0,0-2.6-1.1,3.35,3.35,0,0,0-2.62,1.11,5,5,0,0,0-1,3.36m-2.71.09a8.24,8.24,0,0,1,.6-3.34A6.3,6.3,0,0,1,404,76.23a5.2,5.2,0,0,1,1.68-1.18,7.22,7.22,0,0,1,2.81-.51,6.1,6.1,0,0,1,4.61,1.79,8,8,0,0,1,0,9.89A6.05,6.05,0,0,1,408.57,88,6.13,6.13,0,0,1,404,86.24a6.76,6.76,0,0,1-1.72-4.89"/><polygon class="cls-2" points="426.34 87.79 426.34 74.76 430.28 74.76 432.64 83.64 434.98 74.76 438.92 74.76 438.92 87.79 436.48 87.79 436.48 77.53 433.89 87.79 431.36 87.79 428.79 77.53 428.79 87.79 426.34 87.79"/><path class="cls-2" d="M453.62,77v3.7h1.44a6.66,6.66,0,0,0,2.08-.21,1.78,1.78,0,0,0,.82-.63,1.83,1.83,0,0,0,.3-1,1.68,1.68,0,0,0-.42-1.17,1.76,1.76,0,0,0-1.06-.57,12,12,0,0,0-1.89-.1ZM451,87.79v-13h4.22a15.27,15.27,0,0,1,3.13.2,3.4,3.4,0,0,1,1.87,1.27,4.1,4.1,0,0,1,.75,2.54,4.21,4.21,0,0,1-.43,2,3.61,3.61,0,0,1-1.11,1.29,4,4,0,0,1-1.36.62,15.45,15.45,0,0,1-2.73.18h-1.71v4.92Z"/><path class="cls-2" d="M478.13,82.63l-1.79-4.83-1.75,4.83ZM483,87.79h-2.85l-1.14-3h-5.21l-1.07,3h-2.79l5.07-13h2.79Z"/><polygon class="cls-2" points="493.86 87.79 493.86 74.76 496.42 74.76 501.74 83.46 501.74 74.76 504.19 74.76 504.19 87.79 501.55 87.79 496.3 79.29 496.3 87.79 493.86 87.79"/><polygon class="cls-2" points="519.84 87.79 519.84 82.31 515.07 74.76 518.16 74.76 521.22 79.91 524.22 74.76 527.25 74.76 522.46 82.32 522.46 87.79 519.84 87.79"/><polygon class="cls-3" points="36.4 45.19 36.4 45.19 0 45.19 0 50.2 45.19 50.2 36.4 50.2 36.4 45.19"/><polygon class="cls-3" points="36.4 52.72 36.4 52.72 0 52.72 0 57.74 45.19 57.74 36.4 57.74 36.4 52.72"/><polygon class="cls-3" points="36.4 60.26 36.4 60.26 0 60.26 0 65.27 45.19 65.27 36.4 65.27 36.4 60.26"/><polygon class="cls-3" points="36.4 67.78 36.4 67.78 0 67.78 0 72.8 45.19 72.8 36.4 72.8 36.4 67.78"/><rect class="cls-4" x="58.62" y="15.06" width="51.46" height="5.02"/><rect class="cls-4" x="58.62" y="7.53" width="51.46" height="5.03"/><polygon class="cls-4" points="110.08 22.59 67.41 22.59 67.41 27.61 58.62 27.61 110.08 27.61 110.08 22.59"/><polygon class="cls-4" points="110.08 75.31 67.41 75.31 67.41 80.33 58.62 80.33 110.08 80.33 110.08 75.31"/><rect class="cls-4" x="58.62" width="51.46" height="5.02"/><polygon class="cls-4" points="92.5 30.13 92.5 30.13 67.41 30.13 67.41 35.14 58.62 35.14 110.08 35.14 92.5 35.14 92.5 30.13"/><polygon class="cls-4" points="92.5 37.66 92.5 37.66 67.41 37.66 67.41 42.68 58.62 42.68 110.08 42.68 92.5 42.68 92.5 37.66"/><polygon class="cls-4" points="92.5 45.19 92.5 45.19 67.41 45.19 67.41 50.2 58.62 50.2 110.08 50.2 92.5 50.2 92.5 45.19"/><polygon class="cls-4" points="92.5 52.72 92.5 52.72 67.41 52.72 67.41 57.74 58.62 57.74 110.08 57.74 92.5 57.74 92.5 52.72"/><polygon class="cls-4" points="92.5 60.26 92.5 60.26 67.41 60.26 67.41 65.27 58.62 65.27 110.08 65.27 92.5 65.27 92.5 60.26"/><polygon class="cls-4" points="92.5 67.78 92.5 67.78 67.41 67.78 67.41 72.8 58.62 72.8 110.08 72.8 92.5 72.8 92.5 67.78"/><rect class="cls-5" x="110.08" y="30.13" width="52.72" height="5.02"/><polygon class="cls-6" points="110.08 30.13 110.08 30.13 92.5 30.13 92.5 35.14 110.08 35.14 110.08 30.13"/><rect class="cls-5" x="110.08" y="45.19" width="52.72" height="5.02"/><polygon class="cls-6" points="110.08 45.19 110.08 45.19 92.5 45.19 92.5 50.2 110.08 50.2 110.08 45.19"/><rect class="cls-5" x="110.08" y="37.66" width="52.72" height="5.02"/><polygon class="cls-6" points="110.08 37.66 110.08 37.66 92.5 37.66 92.5 42.68 110.08 42.68 110.08 37.66"/><rect class="cls-5" x="110.08" y="60.26" width="52.72" height="5.01"/><polygon class="cls-6" points="110.08 60.26 110.08 60.26 92.5 60.26 92.5 65.27 110.08 65.27 110.08 60.26"/><rect class="cls-5" x="110.08" y="52.72" width="52.72" height="5.02"/><polygon class="cls-6" points="110.08 52.72 110.08 52.72 92.5 52.72 92.5 57.74 110.08 57.74 110.08 52.72"/><rect class="cls-5" x="110.08" y="67.78" width="52.72" height="5.01"/><polygon class="cls-6" points="110.08 67.78 110.08 67.78 92.5 67.78 92.5 72.8 110.08 72.8 110.08 67.78"/><polygon class="cls-7" points="58.62 22.59 58.62 22.59 36.4 22.59 36.4 27.61 58.62 27.61 58.62 22.59"/><polygon class="cls-8" points="67.41 22.59 67.41 22.59 58.61 22.59 58.61 27.61 67.41 27.61 67.41 22.59"/><polygon class="cls-7" points="58.62 30.13 58.62 30.13 36.4 30.13 36.4 35.14 58.62 35.14 58.62 30.13"/><polygon class="cls-8" points="67.41 30.13 67.41 30.13 58.61 30.13 58.61 35.14 67.41 35.14 67.41 30.13"/><polygon class="cls-7" points="58.62 37.66 58.62 37.66 36.4 37.66 36.4 42.68 58.62 42.68 58.62 37.66"/><polygon class="cls-8" points="67.41 37.66 67.41 37.66 58.61 37.66 58.61 42.68 67.41 42.68 67.41 37.66"/><polygon class="cls-7" points="58.62 45.19 58.62 45.19 45.19 45.19 45.19 50.2 58.62 50.2 58.62 45.19"/><polygon class="cls-9" points="45.19 45.19 45.19 45.19 36.4 45.19 36.4 50.2 45.19 50.2 45.19 45.19"/><polygon class="cls-8" points="67.41 45.19 67.41 45.19 58.61 45.19 58.61 50.2 67.41 50.2 67.41 45.19"/><polygon class="cls-7" points="58.62 52.72 58.62 52.72 45.19 52.72 45.19 57.74 58.62 57.74 58.62 52.72"/><polygon class="cls-9" points="45.19 52.72 45.19 52.72 36.4 52.72 36.4 57.74 45.19 57.74 45.19 52.72"/><polygon class="cls-8" points="67.41 52.72 67.41 52.72 58.61 52.72 58.61 57.74 67.41 57.74 67.41 52.72"/><polygon class="cls-7" points="58.62 60.26 58.62 60.26 45.19 60.26 45.19 65.27 58.62 65.27 58.62 60.26"/><polygon class="cls-9" points="45.19 60.26 45.19 60.26 36.4 60.26 36.4 65.27 45.19 65.27 45.19 60.26"/><polygon class="cls-8" points="67.41 60.26 67.41 60.26 58.61 60.26 58.61 65.27 67.41 65.27 67.41 60.26"/><polygon class="cls-7" points="58.62 67.78 58.62 67.78 45.19 67.78 45.19 72.8 58.62 72.8 58.62 67.78"/><polygon class="cls-9" points="45.19 67.78 45.19 67.78 36.4 67.78 36.4 72.8 45.19 72.8 45.19 67.78"/><polygon class="cls-8" points="67.41 67.78 67.41 67.78 58.61 67.78 58.61 72.8 67.41 72.8 67.41 67.78"/><polygon class="cls-7" points="58.62 75.31 58.62 75.31 36.4 75.31 36.4 80.33 58.62 80.33 58.62 75.31"/><polygon class="cls-8" points="67.41 75.31 67.41 75.31 58.61 75.31 58.61 80.33 67.41 80.33 67.41 75.31"/><rect class="cls-7" x="36.4" y="82.84" width="31.01" height="5.02"/><path class="cls-2" d="M172.58,34.65h1a1.69,1.69,0,0,0,1-.22l.28-.6-.13-.43-.37-.28a2.83,2.83,0,0,0-.87-.09h-1Zm-.87,3V32.3h1.85a4.48,4.48,0,0,1,1.37.15,1.31,1.31,0,0,1,.68.52,1.37,1.37,0,0,1,.25.79,1.42,1.42,0,0,1-.42,1,1.69,1.69,0,0,1-1.12.5l.46.28a6.21,6.21,0,0,1,.8,1.07l.65,1h-1.06l-.48-.85a4.41,4.41,0,0,0-.9-1.25,1.14,1.14,0,0,0-.7-.19h-.51v2.29Zm1.91-6.94a4.28,4.28,0,0,0-2.05.54A3.94,3.94,0,0,0,170,32.83a4.25,4.25,0,0,0-.56,2.09A4.17,4.17,0,0,0,170,37a4,4,0,0,0,1.55,1.54,4.17,4.17,0,0,0,2.07.55,4.23,4.23,0,0,0,2.08-.55A3.93,3.93,0,0,0,177.24,37a4.18,4.18,0,0,0,0-4.16,3.82,3.82,0,0,0-1.56-1.55,4.28,4.28,0,0,0-2-.54m0-.83a5.14,5.14,0,0,1,2.46.65A4.63,4.63,0,0,1,178,32.41a5.16,5.16,0,0,1,.67,2.51A5,5,0,0,1,178,37.4a4.7,4.7,0,0,1-1.85,1.85,5,5,0,0,1-5,0,4.7,4.7,0,0,1-1.85-1.85,5,5,0,0,1,0-5,4.63,4.63,0,0,1,1.87-1.85,5.14,5.14,0,0,1,2.46-.65"/></g></g></svg>